/* XPM */
static char * collect2_xpm[] = {
"64 64 189 2",
"  	c #F5EBFF",
". 	c #464349",
"+ 	c #000000",
"@ 	c #EBE1F5",
"# 	c #F4EAFE",
"$ 	c #48444B",
"% 	c #E4DBEE",
"& 	c #F2E9FC",
"* 	c #EEE4F7",
"= 	c #A19BA8",
"- 	c #827C87",
"; 	c #BFB7C7",
"> 	c #DED5E7",
", 	c #A59EAC",
"' 	c #323035",
") 	c #D8CFE1",
"! 	c #E3D9EC",
"~ 	c #28262A",
"{ 	c #938D9A",
"] 	c #A29BA9",
"^ 	c #A19AA7",
"/ 	c #DFD6E9",
"( 	c #0C0B0D",
"_ 	c #020200",
": 	c #060600",
"< 	c #070700",
"[ 	c #050500",
"} 	c #080800",
"| 	c #0D0D00",
"1 	c #1C1C00",
"2 	c #2C2C00",
"3 	c #3A3A00",
"4 	c #404000",
"5 	c #424200",
"6 	c #454500",
"7 	c #3F3F00",
"8 	c #393900",
"9 	c #292900",
"0 	c #1A1A00",
"a 	c #090900",
"b 	c #040400",
"c 	c #010100",
"d 	c #111100",
"e 	c #1F1F00",
"f 	c #3B3B00",
"g 	c #5D5D00",
"h 	c #777700",
"i 	c #818100",
"j 	c #888800",
"k 	c #8C8C00",
"l 	c #808000",
"m 	c #737300",
"n 	c #555500",
"o 	c #333300",
"p 	c #131300",
"q 	c #030300",
"r 	c #101000",
"s 	c #212100",
"t 	c #656500",
"u 	c #929200",
"v 	c #B7B700",
"w 	c #C6C600",
"x 	c #CBCB00",
"y 	c #D0D000",
"z 	c #CACA00",
"A 	c #C1C100",
"B 	c #B2B200",
"C 	c #575700",
"D 	c #2A2A00",
"E 	c #161600",
"F 	c #0A0A00",
"G 	c #C7BFD0",
"H 	c #595900",
"I 	c #9E9E00",
"J 	c #BDBD00",
"K 	c #D5D500",
"L 	c #DEDE00",
"M 	c #E4E400",
"N 	c #E5E500",
"O 	c #E1E100",
"P 	c #DADA00",
"Q 	c #959500",
"R 	c #727200",
"S 	c #4E4E00",
"T 	c #2B2B00",
"U 	c #141316",
"V 	c #121200",
"W 	c #272700",
"X 	c #5C5C00",
"Y 	c #C0C000",
"Z 	c #D1D100",
"` 	c #E0E000",
" .	c #EDED00",
"..	c #EFEF00",
"+.	c #F0F000",
"@.	c #EBEB00",
"#.	c #DCDC00",
"$.	c #CDCD00",
"%.	c #BBBB00",
"&.	c #222200",
"*.	c #414100",
"=.	c #868600",
"-.	c #C3C300",
";.	c #F2F200",
">.	c #FAFA00",
",.	c #FDFD00",
"'.	c #F9F900",
").	c #252500",
"!.	c #494900",
"~.	c #A9A900",
"{.	c #D7D700",
"].	c #FFFF00",
"^.	c #363600",
"/.	c #6F6F00",
"(.	c #ABAB00",
"_.	c #E6E600",
":.	c #FCFC00",
"<.	c #D9D900",
"[.	c #484800",
"}.	c #8F8F00",
"|.	c #D4D400",
"1.	c #E8E800",
"2.	c #F4F400",
"3.	c #FEFE00",
"4.	c #9D9D00",
"5.	c #E3E300",
"6.	c #F3F300",
"7.	c #C2C200",
"8.	c #A4A400",
"9.	c #ECEC00",
"0.	c #F1F100",
"a.	c #8A8A00",
"b.	c #444400",
"c.	c #F5F500",
"d.	c #F6F600",
"e.	c #EAEA00",
"f.	c #D6D600",
"g.	c #919100",
"h.	c #A6A600",
"i.	c #FBFB00",
"j.	c #CFCF00",
"k.	c #535300",
"l.	c #A2A200",
"m.	c #C9C900",
"n.	c #4B4B00",
"o.	c #979700",
"p.	c #D8D800",
"q.	c #BEBE00",
"r.	c #7B7B00",
"s.	c #3C3C00",
"t.	c #B9B900",
"u.	c #969600",
"v.	c #5E5E00",
"w.	c #2F2F00",
"x.	c #282800",
"y.	c #8B8B00",
"z.	c #DBDB00",
"A.	c #D2D200",
"B.	c #9F9F00",
"C.	c #676700",
"D.	c #3E3E00",
"E.	c #171700",
"F.	c #5B5B00",
"G.	c #0C0C00",
"H.	c #373700",
"I.	c #6C6C00",
"J.	c #A0A000",
"K.	c #E9E900",
"L.	c #939300",
"M.	c #C7BFCF",
"N.	c #C1B9C9",
"O.	c #191900",
"P.	c #CECE00",
"Q.	c #AEAE00",
"R.	c #5F5F00",
"S.	c #353500",
"T.	c #F0E6FA",
"U.	c #545158",
"V.	c #EEEE00",
"W.	c #B0B000",
"X.	c #141400",
"Y.	c #A8A1AF",
"Z.	c #A5A500",
"`.	c #4D4D00",
" +	c #151500",
".+	c #242400",
"++	c #D6CDDE",
"@+	c #DCD3E5",
"#+	c #D7CEE0",
"                                                                                                                                ",
"                                                                                                                                ",
"                                                                                                                                ",
"                                                                                                                                ",
"                                                                                                                                ",
"                                                                                                                                ",
"                                                                                                                                ",
"                                                                                                                                ",
"                                                                                                                                ",
"                                                                                                                                ",
"                                                                                                                                ",
"                                                                                                                                ",
"                                                . + + + + + + + + + + + + + @                                                   ",
"                                              # $ + + + + + + + + + + + + + % &                                                 ",
"                                          * = - + + + + + + + + + + + + + + + - ;                                               ",
"                                      > , + + + + + + + + + + + + + + + + + + + + ' )                                           ",
"                                    ! ~ + + + + + + + + + + + + + + + + + + + + + + + {                                         ",
"                                    ] + + + + + + + + + + + + + + + + + + + + + + + + + ^                                       ",
"                                / ( + + + + + + + + + + + + + + + + + + + + + + + + + + + ^                                     ",
"                              > ~ + + + + + + + + + _ : : : < < < : : [ + + + + + + + + + + {                                   ",
"                              , + + + + + + + [ } | 1 2 3 4 5 6 5 7 8 9 0 a b c + + + + + + + )                                 ",
"                            * + + + + + + + + } d e f g h i j k j l m n o p a q + + + + + + + '                                 ",
"                            = + + + + + + + b r s 3 t u v w x y z A B j C D E F + + + + + + + + ;                               ",
"                          G + + + + + + [ F r o H l I J K L M N O P y v Q R S T F q c + + + + + - &                             ",
"                        . U + + + + + + F V W X u Y Z `  ...+.+.+...@.#.$.%.j S E a b + + + + + + % @                           ",
"                        + + + + + + + + r &.*.=.-.;.>.>.,.,.,.,.,.,.,.>.'...%.R D p a + + + + + + + +                           ",
"                        + + + + + + + _ ).!.h ~.{.>.].].].].].].].].].].].'.$.Q C o 0 + + + + + + + +                           ",
"                        + + + + + + + : ^./.(.x _.:.].].].].].].].].].].].>.<.v j n 9 [ + + + + + + +                           ",
"                        + + + + + + + < [.}.|.1.2.3.].].].].].].].].].].].,.@.y B m 8 : + + + + + + +                           ",
"                        + + + + + + + } S 4.5.6.'.].].].].].].].].].].].].,...P 7.i 4 : + + + + + + +                           ",
"                        + + + + + + + } n 8.9.'.3.].].].].].].].].].].].].,.0.M $.a.b.< + + + + + + +                           ",
"                        + + + + + + + } H ~.c.].].].].].].].].].].].].].].,.d.e.f.g.[.< + + + + + + +                           ",
"                        + + + + + + + } n h...i.3.].].].].].].].].].].].].,.0.N j.k 6 < + + + + + + +                           ",
"                        + + + + + + + } k.l.1.d.'.].].].].].].].].].].].].,.+.O m.=.5 : + + + + + + +                           ",
"                        + + + + + + + } n.o.L ..d.3.].].].].].].].].].].].,. .p.q.r.s.: + + + + + + +                           ",
"                        + + + + + + + : s.r.t.|.e.:.].].].].].].].].].].].>.O q.u.v.w.: + + + + + + +                           ",
"                        + + + + + + + : x.H y.v z.i.].].].].].].].].].].].>.A.B.C.D.1 _ + + + + + + +                           ",
"                        + + + + + + + + E.o F.Q x 2.i.:.3.].].].].].3.:.>.;.A l 3 e | + + + + + + + +                           ",
"                        + + + + + + + + G.e H.I.J.x z.e.d.'.3.].3.'.c.K.{.-.L.H s d } + + + + + + $ .                           ",
"                        M.N.+ + + + + + } G.O.4 I.Q v |...d.i.].'.6.@.P.Q.=.R.S.r } [ + + + + + - #                             ",
"                          T.U.+ + + + + + + b O.H.F.y.t.L 1...c.V._.<.W.r.6 W X.b + + + + + + + =                               ",
"                            Y.+ + + + + + + + G.e o H r.o.l.h.~.Z.I u R `.W  +F + + + + + + + + *                               ",
"                              + + + + + + + + } G.E.x.s.n.k.n H n S !.H..+r F [ + + + + + + + ,                                 ",
"                              +++ + + + + + + + + + : : } } } } } } < : _ + + + + + + + + + ~ >                                 ",
"                              T.@++ + + + + + + + + + + + + + + + + + + + + + + + + + + + ] !                                   ",
"                                  #++ + + + + + + + + + + + + + + + + + + + + + + + + + (                                       ",
"                                    @++ + + + + + + + + + + + + + + + + + + + + + + + ~ /                                       ",
"                                    T.+++ + + + + + + + + + + + + + + + + + + + + + , >                                         ",
"                                          Y.U.+ + + + + + + + + + + + + + + + + = *                                             ",
"                                            T.N.+ + + + + + + + + + + + + + U G                                                 ",
"                                              M.+ + + + + + + + + + + + + + .                                                   ",
"                                                                                                                                ",
"                                                                                                                                ",
"                                                                                                                                ",
"                                                                                                                                ",
"                                                                                                                                ",
"                                                                                                                                ",
"                                                                                                                                ",
"                                                                                                                                ",
"                                                                                                                                ",
"                                                                                                                                ",
"                                                                                                                                ",
"                                                                                                                                ",
"                                                                                                                                "};
