/* XPM */
static char * player_xpm[] = {
"50 50 58 1",
" 	c None",
".	c #000000",
"+	c #020000",
"@	c #130000",
"#	c #260000",
"$	c #2F0000",
"%	c #250000",
"&	c #120000",
"*	c #0D0000",
"=	c #3D0000",
"-	c #710000",
";	c #870000",
">	c #880000",
",	c #6C0000",
"'	c #3A0000",
")	c #0C0000",
"!	c #1A0000",
"~	c #670000",
"{	c #BC0000",
"]	c #E10000",
"^	c #E30000",
"/	c #B40000",
"(	c #610000",
"_	c #170000",
":	c #1E0000",
"<	c #740000",
"[	c #D30000",
"}	c #FC0000",
"|	c #FF0000",
"1	c #C90000",
"2	c #6D0000",
"3	c #1B0000",
"4	c #FD0000",
"5	c #1D0000",
"6	c #CF0000",
"7	c #F80000",
"8	c #FA0000",
"9	c #C50000",
"0	c #6B0000",
"a	c #140000",
"b	c #530000",
"c	c #980000",
"d	c #B50000",
"e	c #B70000",
"f	c #910000",
"g	c #4E0000",
"h	c #070000",
"i	c #280000",
"j	c #4A0000",
"k	c #580000",
"l	c #590000",
"m	c #460000",
"n	c #060000",
"o	c #040000",
"p	c #0B0000",
"q	c #0F0000",
"r	c #0A0000",
"s	c #010000",
"..................................................",
"..................................................",
"............................................... ..",
"............................................... ..",
"............................................... ..",
"............................................... ..",
"............................................... ..",
"............................................... ..",
".......+@#$$$$$$$$$$$$$$$$$$$$$$$$$$$$$%&+..... ..",
".......*=-;>>>>>>>>>>>>>>>>>>>>>>>>>>>>,')..... ..",
".......!~{]^^^^^^^^^^^^^^^^^^^^^^^^^^^^/(_..... ..",
".......:<[}||||||||||||||||||||||||||||123..... ..",
".......:<[4||||||||||||||||||||||||||||123..... ..",
".......:<[4||||||||||||||||||||||||||||123..... ..",
".......:<[4||||||||||||||||||||||||||||123..... ..",
".......:<[4||||||||||||||||||||||||||||123..... ..",
".......:<[4||||||||||||||||||||||||||||123..... ..",
".......:<[4||||||||||||||||||||||||||||123..... ..",
".......:<[4||||||||||||||||||||||||||||123..... ..",
".......:<[4||||||||||||||||||||||||||||123..... ..",
".......:<[4||||||||||||||||||||||||||||123..... ..",
".......:<[4||||||||||||||||||||||||||||123..... ..",
".......:<[4||||||||||||||||||||||||||||123..... ..",
".......:<[4||||||||||||||||||||||||||||123..... ..",
".......:<[4||||||||||||||||||||||||||||123..... ..",
".......:<[4||||||||||||||||||||||||||||123..... ..",
".......:<[4||||||||||||||||||||||||||||123..... ..",
".......:<[4||||||||||||||||||||||||||||123..... ..",
".......:<[4||||||||||||||||||||||||||||123..... ..",
".......:<[4||||||||||||||||||||||||||||123..... ..",
".......:<[4||||||||||||||||||||||||||||123..... ..",
".......:<[4||||||||||||||||||||||||||||123..... ..",
".......:<[4||||||||||||||||||||||||||||123..... ..",
".......:<[4||||||||||||||||||||||||||||123..... ..",
".......:<[4||||||||||||||||||||||||||||123..... ..",
".......:<[4||||||||||||||||||||||||||||123..... ..",
".......:<[4||||||||||||||||||||||||||||123..... ..",
".......:<[4||||||||||||||||||||||||||||123..... ..",
".......:<[4||||||||||||||||||||||||||||123..... ..",
".......5-67888888888888888888888888888890!..... ..",
".......abcdeeeeeeeeeeeeeeeeeeeeeeeeeeeefg&..... ..",
".......hijkllllllllllllllllllllllllllllm%n..... ..",
"........opqqqqqqqqqqqqqqqqqqqqqqqqqqqqqros..... ..",
"............................................... ..",
"............................................... ..",
"............................................... ..",
"............................................... ..",
"..................................................",
"..................................................",
".................................................."};
